<svg xmlns="http://www.w3.org/2000/svg" width="1407" height="280" viewBox="0 0 1407 280">
  <defs>
    <style>
      .cls-1 {
        fill: #4b5c61;
        fill-rule: evenodd;
      }
    </style>
  </defs>
  <path id="Color_Fill_1" data-name="Color Fill 1" class="cls-1" d="M277,49h42V86H277V49Zm625,0h42V158c0,17.074-2.363,39.489,3,52,3.968,9.256,14.631,19.1,24,23,31.84,13.263,70.45-17.671,60-52-5.26-17.29-17.55-28.742-36-33-9.836-2.27-17.354,2.26-25,3-4.472-9.83-12.016-18.327-15-29,8.755-2.965,15.988-8.461,27-11,14.088-3.248,30.42,1.719,39,5,28.29,10.816,64.83,46.291,53,92-8.21,31.734-26.49,50.305-56,61-10.67,3.868-32.877,6.752-46,2-4.751-1.72-11.827-4.987-16-8-4.817-3.478-7.417-10.266-13-13v21H902V49ZM122,234v37c-52.09.535-79.9-6.727-90-48V165c-5.639-1.913-15.695-1.079-23-1V129H31c4.18-12.555,1.08-40.711,1-56H31c-0.99-1.01.985-.989,1-1,4.979-3.162,32.66-1.112,41-1,4.066,12.341,1,33.578,1,48V222c4.058,4.193,7.8,7.945,12,12h36ZM1288,72h42v96c0,18.725-.96,39.919,1,57,3.47,2.7,6.4,7.518,11,9h36v37c-48.95.507-75.23-5.326-88-41-5.31-14.842-2.19-47.089-2-66h-23V129h23V72ZM181,271H138V113c10.906-3.648,30.082-1.084,43-1v20h1c10.181-16.089,37.9-27.614,65-20,7.147,2.008,18.029,1.964,20,9-7.5,6.352-12.654,29.916-22,32-10.48-9.978-35.045-4-44,2-8.545,5.729-15.57,13.393-19,24-2.549,7.882-1,20.453-1,30v62ZM467,112h41V271H467c0.42-24.071,4.051-79.089-3-96-3.8-9.123-10.144-14.767-18-20-6.4-4.267-18.573-10.4-32-7-24.706,6.247-49.329,37.438-30,67,5.5,8.411,25.389,24.6,42,21,4.485-.971,8.963-2.512,14-3,2.839,10.812,11.9,18.022,15,29-10.8,3.837-23.1,14.378-40,12-38.186-5.373-57.328-19.466-72-48-4.985-9.695-12.164-28.452-8-46,9.542-40.218,30.728-59.9,72-69,8.53-1.881,22.158-1.585,30,1,13.417,4.423,19.765,14.088,30,21V112Zm146-2c27.713-.2,51.374,3.353,63,19,21.508,28.946,16.349,90.9,16,141-10.906,3.648-30.082,1.084-43,1-2.672-8.082-1-22.106-1-32V171c-6.23-9.626-3.612-17.437-16-22-11.091-4.085-31.775,3.662-36,2l-15-25a2.834,2.834,0,0,1,1-1c4.152-5.966,13.51-10.582,21-13C606.461,110.882,610.381,111.715,613,110ZM879,271H838c0.619-48.69,8.8-100.841-24-118-5.86-3.065-18.574-8.216-30-5-24.85,6.994-48.139,39.144-28,68,6.747,9.668,24.927,23.64,41,20,4.47-1.012,8.97-2.52,14-3,2.148,6.748,15.838,24.094,14,29-10.524,10.9-40.91,15.566-60,9-30.361-10.442-70.534-47.85-58-96,7.8-29.979,28.209-51.981,56-62l15-2c8.5-1.957,22.188-1.547,30,1a69.451,69.451,0,0,1,18,9c4.467,3.251,6.2,8.852,12,11-0.16-5.319-1.274-15.544,1-19,4.618-2.941,29.275-1.113,37-1v1l2-1v1c3.4,5.477,1,34.059,1,43V271Zm282-161c10.74-.158,21.25-0.652,30,2,36,10.91,76.69,54.972,57,107-10.81,28.55-33.82,46.571-66,54-16.8,3.878-34.37-2.817-44-7-33.75-14.662-64.53-57.384-44-106,7.28-17.232,22.82-33.641,39-42C1140.04,114.362,1155.19,113.669,1161,110ZM319,271H277V113c10.376-3.473,28.646-1.084,41-1,4.241,12.876,1,35.01,1,50V271Zm254,0H530V113c10.641-3.56,29.364-1.084,42-1,4.241,12.876,1,35.01,1,50V271ZM122,129v35H99c-6.163-10.989-15.455-22.239-19-35h42Zm1256,0v35h-23c-6.09-10.882-15.51-22.584-19-35h42Zm-215,18c-3.57,2.438-8.29,2.676-12,5-8.68,5.434-16.05,17-19,28-6.85,25.572,16.51,62.991,44,56C1220.28,224.737,1221.29,145.8,1163,147Z"/>
</svg>
